Coordinates
version=1
nRows=19
nColumns=63
inDegrees=yes

Units are S.I. units (second, meters, Newtons, ...)
If the header above contains a line with 'inDegrees', this indicates whether rotational values are in degrees (yes) or radians (no).

endheader
time	pelvis_tilt	pelvis_list	pelvis_rotation	pelvis_tx	pelvis_ty	pelvis_tz	hip_flexion_r	hip_adduction_r	hip_rotation_r	knee_angle_r	knee_angle_r_beta	ankle_angle_r	subtalar_angle_r	mtp_angle_r	hip_flexion_l	hip_adduction_l	hip_rotation_l	knee_angle_l	knee_angle_l_beta	ankle_angle_l	subtalar_angle_l	mtp_angle_l	L5_S1_Flex_Ext	L5_S1_Lat_Bending	L5_S1_axial_rotation	L4_L5_Flex_Ext	L4_L5_Lat_Bending	L4_L5_axial_rotation	L3_L4_Flex_Ext	L3_L4_Lat_Bending	L3_L4_axial_rotation	L2_L3_Flex_Ext	L2_L3_Lat_Bending	L2_L3_axial_rotation	L1_L2_Flex_Ext	L1_L2_Lat_Bending	L1_L2_axial_rotation	L1_T12_Flex_Ext	L1_T12_Lat_Bending	L1_T12_axial_rotation	Abs_r3	Abs_r2	Abs_r1	Abs_t1	Abs_t2	neck_flexion	neck_bending	neck_rotation	arm_flex_r	arm_add_r	arm_rot_r	elbow_flex_r	pro_sup_r	wrist_flex_r	wrist_dev_r	arm_flex_l	arm_add_l	arm_rot_l	elbow_flex_l	pro_sup_l	wrist_flex_l	wrist_dev_l
0.000000	-1.078867	-15.676538	108.776984	0.191874	0.343555	0.664439	-1.837900	-2.588373	-20.413104	1.173079	0.020474	13.448259	12.023297	0.000000	3.202087	3.724399	-9.309294	4.690854	0.081871	17.020771	12.812822	0.000000	0.334447	-0.271460	-0.821112	0.621102	-0.361042	-0.872431	0.549464	-0.660028	-0.872431	0.382240	-0.660028	-0.718473	0.310568	-0.553562	-0.667153	0.191103	-0.420492	-0.615834	2.388924	-3.070813	-4.566777	0.000000	0.000000	27.889624	3.431027	2.805227	9.991955	-2.277248	52.091456	34.529060	62.688753	5.297051	21.689222	14.239323	-6.132281	65.743925	42.945486	28.682614	-7.321501	13.917658
0.019231	-1.244427	-15.552348	109.121287	0.190596	0.344261	0.663741	-1.613069	-2.931115	-22.161041	2.138264	0.037320	13.772809	12.397334	0.000000	2.914712	3.963697	-8.781387	4.559164	0.079572	16.418570	12.175882	0.000000	0.320112	-0.289849	-0.834154	0.594480	-0.385499	-0.886289	0.525912	-0.704739	-0.886289	0.365856	-0.704739	-0.729885	0.297256	-0.591061	-0.677750	0.182912	-0.448976	-0.625615	2.286529	-3.278832	-4.639314	0.000000	0.000000	27.840333	3.303785	2.011562	10.521832	-1.952313	53.770381	33.410081	57.217731	4.564570	22.491071	13.919540	-5.431950	64.729056	42.094871	31.227054	-7.072761	14.031668
0.038462	-1.376303	-15.467976	109.341349	0.189653	0.344761	0.663221	-1.386057	-3.222677	-23.556465	2.948469	0.051460	14.039138	12.755393	0.000000	2.705297	4.158056	-8.409628	4.451808	0.077699	15.935405	11.656798	0.000000	0.309165	-0.304434	-0.838496	0.574150	-0.404898	-0.890903	0.507927	-0.740202	-0.890903	0.353344	-0.740202	-0.733684	0.287090	-0.620802	-0.681278	0.176657	-0.471569	-0.628872	2.208332	-3.443822	-4.663466	0.000000	0.000000	27.807568	3.171885	1.336593	10.924714	-1.696050	55.026566	32.546382	52.903560	3.941178	23.124599	13.658180	-4.837800	63.698826	41.420862	33.595417	-6.828388	14.401464
0.057692	-1.477286	-15.419473	109.449588	0.189012	0.345077	0.662860	-1.159125	-3.466488	-24.630404	3.615457	0.063102	14.251108	13.095412	0.000000	2.566459	4.311077	-8.177265	4.367079	0.076220	15.562314	11.242937	0.000000	0.301326	-0.315511	-0.835276	0.559593	-0.419630	-0.887481	0.495049	-0.767134	-0.887481	0.344386	-0.767134	-0.730866	0.279812	-0.643390	-0.678662	0.172178	-0.488727	-0.626457	2.152343	-3.569125	-4.645553	0.000000	0.000000	27.789523	3.038016	0.774812	11.214183	-1.502098	55.907866	31.911443	49.642295	3.422079	23.598754	13.448604	-4.342726	62.665697	40.908268	35.783503	-6.595020	14.982483
0.076923	-1.550162	-15.402891	109.458424	0.188642	0.345231	0.662640	-0.934533	-3.665974	-25.413886	4.150991	0.072448	14.412578	13.415327	0.000000	2.490812	4.426358	-8.067548	4.303267	0.075106	15.290337	10.921671	0.000000	0.296319	-0.323375	-0.825628	0.550293	-0.430089	-0.877230	0.486822	-0.786254	-0.877230	0.338662	-0.786254	-0.722425	0.275161	-0.659426	-0.670823	0.169316	-0.500908	-0.619221	2.116574	-3.658083	-4.591897	0.000000	0.000000	27.784394	2.904865	0.320709	11.403823	-1.364098	56.462137	31.478745	47.329994	3.002480	23.922485	13.284176	-3.939623	61.642130	40.541897	37.787110	-6.379295	15.730163
0.096154	-1.597719	-15.414282	109.380275	0.188511	0.345242	0.662545	-0.714540	-3.824563	-25.937940	4.566836	0.079706	14.527410	13.713074	0.000000	2.470971	4.507498	-8.063724	4.258665	0.074328	15.110510	10.680369	0.000000	0.293863	-0.328322	-0.810691	0.545733	-0.436668	-0.861359	0.482788	-0.798281	-0.861359	0.335856	-0.798281	-0.709354	0.272881	-0.669514	-0.658686	0.167913	-0.508570	-0.608018	2.099035	-3.714041	-4.508818	0.000000	0.000000	27.790375	2.775120	-0.031222	11.507217	-1.275689	56.737234	31.221767	45.862713	2.677586	24.104742	13.158260	-3.621386	60.640588	40.306555	39.602034	-6.187851	16.599940
0.115385	-1.622745	-15.449697	109.227561	0.188588	0.345133	0.662557	-0.501405	-3.945684	-26.233595	4.874754	0.085081	14.599464	13.986590	0.000000	2.499550	4.558095	-8.149042	4.231564	0.073855	15.013872	10.506401	0.000000	0.293682	-0.330647	-0.791599	0.545396	-0.439760	-0.841074	0.482490	-0.803934	-0.841074	0.335649	-0.803934	-0.692649	0.272713	-0.674255	-0.643174	0.167810	-0.512172	-0.593700	2.097740	-3.740341	-4.402638	0.000000	0.000000	27.805662	2.651469	-0.286492	11.537948	-1.230512	56.781014	31.113989	45.136509	2.442602	24.154473	13.064219	-3.380912	59.673532	40.187052	41.224076	-6.027325	17.547251
0.134615	-1.628029	-15.505188	109.012702	0.188841	0.344924	0.662657	-0.297389	-4.032764	-26.331878	5.086511	0.088776	14.632602	14.233812	0.000000	2.569166	4.581749	-8.306751	4.220257	0.073657	14.991461	10.387136	0.000000	0.295496	-0.330645	-0.769491	0.548765	-0.439758	-0.817584	0.485470	-0.803931	-0.817584	0.337722	-0.803931	-0.673304	0.274397	-0.674252	-0.625211	0.168846	-0.512170	-0.577118	2.110697	-3.740325	-4.279677	0.000000	0.000000	27.828447	2.536600	-0.450607	11.509600	-1.222206	56.641333	31.128892	45.047439	2.292735	24.080627	12.995415	-3.211094	58.753423	40.168194	42.649032	-5.904356	18.527534
0.153846	-1.616357	-15.576807	108.748115	0.189239	0.344637	0.662828	-0.104751	-4.089230	-26.263820	5.213869	0.090999	14.630683	14.452676	0.000000	2.672433	4.582058	-8.520098	4.223034	0.073706	15.034315	10.309944	0.000000	0.299027	-0.328613	-0.745502	0.555323	-0.437056	-0.792095	0.491271	-0.798990	-0.792095	0.341758	-0.798990	-0.652314	0.277676	-0.670108	-0.605720	0.170864	-0.509022	-0.559126	2.135920	-3.717338	-4.146256	0.000000	0.000000	27.856928	2.433202	-0.529077	11.435757	-1.244412	56.366045	31.239954	45.491560	2.223190	23.892152	12.945213	-3.104829	57.892723	40.234789	43.872702	-5.825580	19.496225
0.173077	-1.590518	-15.660605	108.446220	0.189749	0.344293	0.663054	0.074249	-4.118511	-26.060447	5.268593	0.091954	14.597569	14.641120	0.000000	2.801966	4.562621	-8.772334	4.238189	0.073970	15.133472	10.262194	0.000000	0.303997	-0.324846	-0.720768	0.564552	-0.432045	-0.765816	0.499436	-0.789830	-0.765816	0.347438	-0.789830	-0.630672	0.282291	-0.662426	-0.585624	0.173704	-0.503186	-0.540576	2.171418	-3.674722	-4.008696	0.000000	0.000000	27.889297	2.343961	-0.527411	11.330002	-1.290770	56.003007	31.420657	46.364929	2.229173	23.597999	12.906975	-3.055012	57.103894	40.371646	44.890882	-5.797635	20.408761
0.192308	-1.553300	-15.752633	108.119436	0.190342	0.343913	0.663315	0.237352	-4.124034	-25.752789	5.262445	0.091847	14.537120	14.797079	0.000000	2.950380	4.527037	-9.046705	4.264012	0.074421	15.279970	10.231257	0.000000	0.310127	-0.319639	-0.696427	0.575936	-0.425120	-0.739954	0.509507	-0.777170	-0.739954	0.354444	-0.777170	-0.609374	0.287984	-0.651808	-0.565847	0.177206	-0.495121	-0.522320	2.215204	-3.615820	-3.873319	0.000000	0.000000	27.923750	2.271566	-0.451115	11.205918	-1.354920	55.600074	31.644479	47.563602	2.305888	23.207115	12.874065	-3.054538	56.399396	40.563571	45.699372	-5.827160	21.220580
0.211538	-1.523182	-15.850578	107.758473	0.191017	0.343547	0.663538	0.393084	-4.128881	-25.419210	5.224369	0.091182	14.465906	15.003271	0.000000	3.097847	4.497674	-9.294729	4.273865	0.074593	15.413897	10.182641	0.000000	0.317315	-0.315763	-0.672126	0.589285	-0.419964	-0.714134	0.521316	-0.767745	-0.714134	0.362659	-0.767745	-0.588110	0.294658	-0.643903	-0.546103	0.181314	-0.489116	-0.504095	2.266546	-3.571969	-3.738164	0.000000	0.000000	27.958975	2.247310	-0.314274	11.153454	-1.388321	55.448072	31.752033	48.369157	2.464110	22.799049	12.745088	-3.075035	55.644871	40.763919	46.397318	-6.020027	21.631386
0.230769	-1.476393	-15.933994	107.404041	0.191661	0.343235	0.663740	0.514891	-4.105932	-25.112176	5.164814	0.090143	14.356124	15.202868	0.000000	3.237351	4.439788	-9.616476	4.310331	0.075229	15.624755	10.196024	0.000000	0.324037	-0.308626	-0.649647	0.601769	-0.410473	-0.690250	0.532360	-0.750394	-0.690250	0.370342	-0.750394	-0.568441	0.300900	-0.629351	-0.527838	0.185155	-0.478062	-0.487235	2.314562	-3.491242	-3.613142	0.000000	0.000000	27.987680	2.237694	-0.088665	11.065045	-1.442707	55.232178	31.883464	49.393446	2.669676	22.257354	12.625356	-3.131025	55.111607	40.972288	46.790004	-6.244111	21.755632
0.250000	-1.422469	-16.004397	107.095152	0.192229	0.342978	0.663905	0.598996	-4.060890	-24.786400	5.088431	0.088810	14.219895	15.262620	0.000000	3.367328	4.372320	-9.829148	4.369367	0.076260	15.881756	10.078491	0.000000	0.330652	-0.300073	-0.635656	0.614054	-0.399098	-0.675384	0.543229	-0.729599	-0.675384	0.377903	-0.729599	-0.556199	0.307044	-0.611910	-0.516470	0.188935	-0.464814	-0.476742	2.361817	-3.394491	-3.535326	0.000000	0.000000	28.008633	2.247846	0.205004	10.961549	-1.511071	55.049487	32.013600	50.602903	2.896395	21.548208	12.511128	-3.228362	54.815158	41.210216	46.837130	-6.585142	21.652402
0.269231	-1.364769	-16.065817	106.829162	0.192727	0.342774	0.664003	0.643958	-3.990142	-24.354286	4.979170	0.086903	14.050669	15.068623	0.000000	3.484719	4.300580	-9.949981	4.436798	0.077437	16.163763	9.863628	0.000000	0.337744	-0.290996	-0.626220	0.627224	-0.387025	-0.665359	0.554879	-0.707528	-0.665359	0.386007	-0.707528	-0.547942	0.313629	-0.593399	-0.508804	0.192987	-0.450753	-0.469665	2.412470	-3.291807	-3.482847	0.000000	0.000000	28.023553	2.280078	0.546447	10.816351	-1.575156	54.768859	32.113119	52.136975	3.189280	20.721972	12.389756	-3.340508	54.679475	41.412682	46.952094	-6.843363	21.364179
0.288462	-1.317748	-16.122880	106.647400	0.193116	0.342626	0.664078	0.657303	-3.925862	-24.100702	4.869104	0.084982	13.917205	14.961297	0.000000	3.595738	4.241809	-9.951967	4.513129	0.078769	16.441648	9.600000	0.000000	0.345041	-0.283915	-0.633524	0.640776	-0.377607	-0.673120	0.566868	-0.690311	-0.673120	0.394347	-0.690311	-0.554334	0.320405	-0.578959	-0.514738	0.197156	-0.439784	-0.475143	2.464593	-3.211703	-3.523472	0.000000	0.000000	28.031218	2.346761	0.907973	10.763582	-1.634897	54.937289	32.103080	53.453998	3.558417	19.705311	12.275011	-3.494002	54.768394	41.626472	46.868292	-7.140778	20.902160
0.307692	-1.282369	-16.172828	106.544552	0.193392	0.342544	0.664159	0.636497	-3.862676	-23.921018	4.742820	0.082778	13.803521	14.815894	0.000000	3.703112	4.196367	-9.881637	4.599874	0.080283	16.694394	9.353749	0.000000	0.351472	-0.278476	-0.650201	0.652719	-0.370373	-0.690839	0.577434	-0.677086	-0.690839	0.401698	-0.677086	-0.568926	0.326377	-0.567867	-0.528289	0.200831	-0.431359	-0.487651	2.510532	-3.150172	-3.616226	0.000000	0.000000	28.034611	2.429648	1.283718	10.815739	-1.689509	55.533740	31.990482	54.739083	3.994393	18.625651	12.249442	-3.670158	55.302276	41.759938	46.374623	-7.324562	20.187049
0.326923	-1.261033	-16.220680	106.513844	0.193561	0.342512	0.664272	0.597162	-3.809368	-23.806659	4.612248	0.080499	13.717250	14.628814	0.000000	3.807328	4.169957	-9.763341	4.682762	0.081730	16.902442	9.161027	0.000000	0.357456	-0.275061	-0.678443	0.663832	-0.365831	-0.720846	0.587265	-0.668783	-0.720846	0.408537	-0.668783	-0.593638	0.331934	-0.560904	-0.551235	0.204251	-0.426069	-0.508832	2.553275	-3.111543	-3.773296	0.000000	0.000000	28.034157	2.545293	1.678275	11.019091	-1.727295	56.669454	31.749618	55.651070	4.455803	17.643257	12.317127	-3.877021	56.261645	41.834384	45.223855	-7.528687	19.269324
0.346154	-1.239358	-16.265322	106.541823	0.193628	0.342493	0.664413	0.544122	-3.756249	-23.803437	4.472935	0.078067	13.650685	14.501560	0.000000	3.914743	4.143959	-9.703206	4.770206	0.083256	17.074667	9.142544	0.000000	0.362937	-0.271990	-0.709977	0.674010	-0.361746	-0.754351	0.596269	-0.661315	-0.754351	0.414800	-0.661315	-0.621230	0.337023	-0.554641	-0.576856	0.207382	-0.421312	-0.532483	2.592421	-3.076800	-3.948680	0.000000	0.000000	28.035567	2.646514	2.029252	11.283982	-1.761185	57.940272	31.471730	56.088645	4.870667	17.008163	12.454617	-4.076464	57.403468	41.811359	43.890619	-7.620030	18.328703
